<svg xmlns="http://www.w3.org/2000/svg" xmlns:xlink="http://www.w3.org/1999/xlink" version="1.1" class="marks" width="458" height="160" viewBox="0 0 458 160"><rect width="458" height="160" fill="white"/><g fill="none" stroke-miterlimit="10" transform="translate(5,5)"><g class="mark-group role-frame root" role="graphics-object" aria-roledescription="group mark container"><g transform="translate(0,0)"><path class="background" aria-hidden="true" d="M0,0h300v150h-300Z"/><g><g class="mark-shape role-mark marks" role="graphics-object" aria-roledescription="shape mark container"><path aria-label="properties.CONTINENT: Oceania" role="graphics-symbol" aria-roledescription="geoshape" transform="translate(0,0)" d="M298.801,93.557L300,93.463L298.77,93.974ZM297.755,94.386L298.189,95.245L297.212,95.26ZM0,92.916L0.225,93.403L0.176,93.463Z" fill="#eeca3b"/><path aria-label="properties.CONTINENT: Africa" role="graphics-symbol" aria-roledescription="geoshape" transform="translate(0,0)" d="M178.895,75.737L183.346,80L183.38,87.085L179.171,87.791L175.179,82.105L175.933,75.948Z" fill="#4c78a8"/><path aria-label="properties.CONTINENT: Africa" role="graphics-symbol" aria-roledescription="geoshape" transform="translate(0,0)" d="M143.13,43.643L143.062,45.556L140.41,45.499L139.463,50.532L136.051,50.893L137.972,50.341L140.911,44.474Z" fill="#4c78a8"/><path aria-label="properties.CONTINENT: North America" role="graphics-symbol" aria-roledescription="geoshape" transform="translate(0,0)" d="M63.293,22.341L62.335,21.073L61.373,20.707L61.898,17.727L63.533,16.376L63.181,13.312L61.143,13.991L60.104,12.918L68.542,6.582L70.449,7.064L76.576,6.139L83.013,7.805L88.093,7.123L90.104,7.831L92.912,7.257L93.04,8.053L95.211,6.962L94.512,6.364L96.283,5.348L98.195,8.113L100.712,6.483L102.272,6.614L101.693,8.169L98.786,8.524L94.123,10.512L88.844,13.957L89.309,15.427L94.926,17.009L94.631,20.374L96.165,19.196L96.33,17.409L99.422,15.873L99.23,14.069L100.509,13.262L101.247,11.43L103.974,11.341L106.011,12.353L106.016,14.533L108.883,12.896L109.106,16.031L111.465,17.443L111.751,19.555L108.093,21.227L103.635,21.24L98.994,24.334L104.206,22.131L103.558,24.876L104.328,25.343L105.572,25.207L106.663,24.162L106.827,25.173L101.996,27.422L101.721,26.545L103.268,25.763L101.243,25.908L100.572,23.756L98.017,26.031L88.665,29.23L90.12,25.711L87.299,22.973L76.122,21.486ZM98.059,11.546L98.349,11.004L99.198,11.01ZM106.221,4.848L105.227,4.438L107.396,4.873ZM99.927,11.93L100.142,11.383L100.441,11.547ZM98.445,3.524L98.297,4.005L97.006,3.849ZM99.687,2.624L98.635,2.727L98.618,2.619ZM98.573,2.249L99.34,2.399L97.905,2.235ZM106.318,3.851L99.373,3.891L97.75,3.051ZM90.037,2.536L91.539,2.557L89.439,2.658ZM91.087,2.243L91.94,2.332L90.316,2.403ZM111.538,20.279L110.218,21.611L112.378,22.117L111.907,24.488L107.753,23.613ZM98.269,9.06L99.962,10.254L100.723,10.431L96.232,10.56ZM104.431,4.409L110.643,6.115L111.136,6.892L109.87,7.171L113.211,8.328L111.219,9.556L109.278,8.716L110.096,10.664L107.708,10.417L108.549,11.712L107.023,11.423L102.104,9.845L105.329,9.249L106.938,7.568L104.639,6.319L99.173,6.18L99.276,5.181L102.509,4.384L101.92,5.024ZM96.662,4.564L99.005,4.24L99.939,4.358L96.248,5.273ZM83.494,3.319L86.341,2.744L87.969,2.692L86.853,3.143ZM59.481,18.468L60.93,17.868L59.8,19.526ZM94.469,2.085L96.714,2.261L96.926,2.591L94.215,2.413L94.866,2.305ZM62.481,22.785L61.181,22.499L60.687,20.759L62.156,21.181ZM81.174,4.147L85.167,4.198L85.841,4.546L83.129,5.032L81.631,5.638L79.781,5.904L78.883,5.376L81.294,4.444ZM87.742,3.165L92.444,3.598L85.738,3.714ZM89.562,4.739L91.539,6.657L83.723,7.283L82.397,6.438L85.516,6.205L82.356,5.543L85.916,4.626L88.776,5.493ZM93.785,4.935L93.545,4.603L96.08,4.405L95.889,5.011L94.125,5.699L92.514,5.037ZM90.871,4.484L91.639,4.464L91.933,4.573L91.048,4.908ZM96.992,3.064L96.31,3.816L94.235,3.561L94.605,3.225ZM99.965,1.665L102.07,1.472L104.857,2.073L100.734,2.427ZM102.699,1.297L109.358,0.993L118.231,1.11L109.547,2.078L110.086,2.36L106.444,3.292L101.739,3.167L103.009,2.594L104.617,2.733L103.357,2.416L105.239,2.07L104.59,1.773L107.318,1.707ZM105.521,7.958L104.303,8.177L104.394,7.868L105.52,7.435ZM93.538,6.333L93.838,7.149L92.174,6.765ZM104.819,21.557L105.925,21.706L106.454,22.246L105.301,21.98ZM103.849,24.732L104.247,24.586L105.402,24.686L104.621,25.128Z" fill="#54a24b"/><path aria-label="properties.CONTINENT: North America" role="graphics-symbol" aria-roledescription="geoshape" transform="translate(0,0)" d="M63.293,22.341L76.122,21.486L87.299,22.973L90.12,25.711L88.478,29.23L98.017,26.031L100.572,23.756L101.254,26.218L98.549,27.289L97.946,29.267L93.029,31.373L93.007,32.465L91.931,33.661L92.285,31.72L91.48,32.63L91.549,35.357L85.874,39.622L84.915,46.287L83.536,41.21L81.542,40.72L74.651,41.695L71.202,45.6L69.623,41.801L67.205,41.918L66.129,39.293L58.109,38.475L56.368,36.324L56.586,30.567L61.421,23.081L62.183,24.08ZM21.194,52.328L22.167,52.544L21.223,53.202ZM21.259,50.879L21.247,51.366L21.144,50.974ZM20.818,50.651L21.136,50.817L20.707,50.785ZM20.136,50.548L20.529,50.538L20.461,50.601ZM19.319,49.532L19.277,49.92L19.078,49.719ZM43.119,12.989L44.342,12.928L43.998,13.219ZM48.597,15.127L50.38,15.024L48.247,15.503ZM68.542,6.582L60.104,12.918L61.143,13.991L63.181,13.312L63.533,16.376L62.292,17.296L62.666,14.603L61.08,14.533L60.141,13.503L56.744,12.484L52.154,13.797L54.904,12.187L44.685,16.312L38.92,17.489L48.481,13.981L45.04,14.173L44.777,12.767L46.193,11.608L52.103,9.698L48.583,9.106L52.928,8.812L53.106,7.073L61.079,5.652ZM44.318,10.391L44.986,10.452L45.666,10.732L44.796,10.959Z" fill="#54a24b"/><path aria-label="properties.CONTINENT: Asia" role="graphics-symbol" aria-roledescription="geoshape" transform="translate(0,0)" d="M211.708,22.147L208.358,26.116L209.621,28.574L204.783,27.659L201.558,30.216L197.778,27.247L195.727,27.461L192.513,25.486L190.82,26.042L191.888,29.588L189.178,29.125L186.825,26.408L188.643,25.794L188.194,24.305L185.482,24.726L183.077,22.89L185.175,19.95L192.799,20.734L191.44,19.717L191.705,17.964L196.296,16.813L200.055,18.402L201.949,17.557L205.789,20.676Z" fill="#e45756"/><path aria-label="properties.CONTINENT: Asia" role="graphics-symbol" aria-roledescription="geoshape" transform="translate(0,0)" d="M191.888,29.588L190.82,26.042L192.513,25.486L195.727,27.461L197.778,27.247L201.281,30.223L202.754,28.656L204.806,30.022L201.208,31.292L202.055,33.734L193.459,28.186Z" fill="#e45756"/><path aria-label="properties.CONTINENT: Oceania" role="graphics-symbol" aria-roledescription="geoshape" transform="translate(0,0)" d="M269.84,77.626L275.21,81.607L274.664,83.095L277.092,86.728L272.56,83.371L269.204,85.064ZM278.287,77.511L279.734,80.103L278.039,77.787ZM279.2,79.397L276.931,81.873L275.815,81.223ZM281.318,80.758L282.249,82.128L282.095,82.447L281.527,82.123Z" fill="#eeca3b"/><path aria-label="properties.CONTINENT: Asia" role="graphics-symbol" aria-roledescription="geoshape" transform="translate(0,0)" d="M269.84,77.626L269.204,85.064L266.421,84.261L267.04,80.819L262.948,79.356L262.178,77.878L263.652,77.184L260.986,75.723L263.934,75.543L265.094,78.504L266.85,76.599ZM255.666,84.808L255.034,86.226L254.196,86.339L254.776,85.26ZM264.245,81.756L263.734,81.674L264.129,80.878ZM250.13,69.915L251.196,73.617L248.666,79.241L243.689,78.008L243.244,72.353L243.99,73.764L246.781,73.256L248.409,69.722ZM258.676,78.533L260.875,78.19L261.141,79.065ZM257.926,78.231L257.208,78.778L257.065,78.286ZM258.758,72.16L259.427,73.353L258.931,75.68L258.334,73.491ZM251.907,74.473L256.492,73.024L252.087,75.244L254.89,75.354L253.309,76.829L254.525,80.759L252.829,77.657L251.644,81.139L250.95,77.856ZM251.524,86.36L250.507,85.565L251.321,85.341ZM251.416,84.715L253.221,84.317L254.025,83.899L253.83,84.532ZM249.793,83.901L250.755,84.596L248.697,84.968ZM239.314,82.483L245.444,82.591L247.905,84.214ZM232.757,68.648L240.189,78.154L239.78,81.343L237.143,79.478L230.884,68.381Z" fill="#e45756"/><path aria-label="properties.CONTINENT: South America" role="graphics-symbol" aria-roledescription="geoshape" transform="translate(0,0)" d="M103.033,130.167L104.13,131.203L106.296,131.917L103.954,132.058ZM104.332,108.385L104.596,112.792L106.52,115.319L102.802,117.257L103.141,119.436L101.377,119.471L103.085,120.931L101.276,123.78L103.068,125.348L101.918,128.506L103.25,129.92L100.518,129.624L98.346,127.245L98.14,123.057L96.537,120.632L94.473,102.264L95.714,99.323L98.559,99.546L103.234,102.964L102.917,105.084L105.317,105.368L106.256,103.382L106.88,104.868Z" fill="#ff9da6"/><path aria-label="properties.CONTINENT: South America" role="graphics-symbol" aria-roledescription="geoshape" transform="translate(0,0)" d="M103.033,130.167L103.954,132.058L105.09,132.081L104.589,132.673L98.989,130.34L101.948,131.392ZM92.279,94.609L95.341,100.591L94.381,109.597L95.724,112.546L96.537,120.632L98.14,123.057L98.346,127.245L100.518,129.624L102.939,129.876L101.637,131.208L98.54,129.844L96.528,126.663L96.87,125.074L95.661,124.803L96.161,120.757L95.278,121.569Z" fill="#ff9da6"/><path aria-label="properties.CONTINENT: Africa" role="graphics-symbol" aria-roledescription="geoshape" transform="translate(0,0)" d="M174.982,79.798L176.076,84.179L174.376,84.392L173.953,88.101L175.002,89.755L168.746,87.298L168.479,82.984L164.865,83.87L163.926,81.372L160.414,81.272L163.676,78.695L166.6,68.893L175.299,69.386L176.568,72.126Z" fill="#4c78a8"/><path aria-label="properties.CONTINENT: Africa" role="graphics-symbol" aria-roledescription="geoshape" transform="translate(0,0)" d="M185.416,76.576L184.891,71.462L188.225,68.928L191.402,63.855L191.287,61.632L193.062,60.937L191.294,68.542Z" fill="#4c78a8"/><path aria-label="properties.CONTINENT: Africa" role="graphics-symbol" aria-roledescription="geoshape" transform="translate(0,0)" d="M183.346,80L178.895,75.737L180.015,68.351L182.45,70.531L185.613,70.165L185.416,76.576Z" fill="#4c78a8"/><path aria-label="properties.CONTINENT: Africa" role="graphics-symbol" aria-roledescription="geoshape" transform="translate(0,0)" d="M171.227,62.921L170.206,64.748L169.905,64.421L168.514,60.3L170.588,49.791L180.319,49.791L181.96,54.224L178.799,64.728L177.608,60.684L176.543,63.448Z" fill="#4c78a8"/><path aria-label="properties.CONTINENT: Africa" role="graphics-symbol" aria-roledescription="geoshape" transform="translate(0,0)" d="M169.781,52.464L170.027,56.895L168.514,60.3L169.341,61.936L163.019,66.165L161.421,58.293L163.195,51.57L162.231,48.844Z" fill="#4c78a8"/><path aria-label="properties.CONTINENT: North America" role="graphics-symbol" aria-roledescription="geoshape" transform="translate(0,0)" d="M90.866,52.316L90.593,54.172L88.361,53.84L90.174,53.477L89.681,52.092Z" fill="#54a24b"/><path aria-label="properties.CONTINENT: North America" role="graphics-symbol" aria-roledescription="geoshape" transform="translate(0,0)" d="M90.779,54.67L90.999,52.127L93.493,53.54Z" fill="#54a24b"/><path aria-label="properties.CONTINENT: Europe" role="graphics-symbol" aria-roledescription="geoshape" transform="translate(0,0)" d="M47.935,5.566L47.935,5.566L47.201,5.943L47.201,5.943L47.935,5.566ZM252.975,5.943L251.961,5.794L251.961,5.794L252.241,5.566L252.975,5.943ZM185.482,24.726L184.179,26.408L185.836,29.742L176.75,25.807L178.264,21.8L171.98,19.594L172.363,18.52L170.712,16.676L167.991,15.117L168.722,13.129L167.967,12.77L169.684,11.037L168.631,10.552L166.739,6.964L168.635,6.47L174.413,7.95L173.183,8.888L169.921,8.476L172.868,10.344L172.66,9.458L176.513,8.843L175.528,7.262L177.258,7.457L177.779,8.453L181.441,7.088L185.29,7.44L185.059,6.502L190.404,7.554L188.131,5.833L189.161,4.764L191.1,5.189L190.908,5.624L193.292,7.361L192.831,8.679L193.584,8.775L194.408,7.76L191.604,5.603L191.886,4.87L193.588,5.765L196.228,5.439L194.79,4.46L205.848,2.671L212.112,3.436L210.508,4.201L220.648,4.501L225.167,5.968L229.489,5.581L228.323,5.086L228.715,4.862L240.937,5.923L243.447,6.743L255.03,7.025L259.567,9.569L258.415,9.821L262.178,11.442L259.253,13.24L254.914,13.25L255.605,14.508L257.013,15.005L259.073,17.252L259.074,20.547L253.069,15.684L252.69,11.264L252.033,12.739L248.976,12.076L249.047,13.334L250.18,13.805L241.982,13.887L241.031,17.357L246.613,18.743L249.484,22.843L249.419,27.563L247.178,28.7L245.529,26.069L246.916,25.902L245.887,22.814L243.52,23.442L234.202,18.428L232.397,19.031L233.039,21.881L226.561,22.086L218.21,19.641L218.41,21.688L214.312,20.732L211.708,22.147L205.789,20.676L201.949,17.557L200.055,18.402L196.296,16.813L191.705,17.964L191.44,19.717L192.799,20.734L185.175,19.95L183.292,21.039L183.077,22.89ZM197.778,1.745L199.943,1.474L202.711,1.925L201.857,2.277ZM203.507,2.109L205.909,2.292L203.12,2.586ZM224.941,3.696L226.79,3.329L229.145,3.561ZM231.022,3.658L232.6,3.777L230.007,3.737ZM227.963,4.598L228.8,4.357L230.173,4.677L229.333,4.681ZM173.501,1.669L176.151,1.57L176.965,1.635L175.039,1.85ZM165.442,17.694L164.202,17.706L163.356,17.611L164.342,16.974ZM179.767,4.41L183.204,3.261L187.262,3.137L182.343,4.139L181.261,5.109L183.014,6.005L179.385,5.588ZM247.158,18.219L252.315,22.363L251.003,22.065L253.733,24.97L252.842,25.13L246.663,18.562ZM45.146,7.025L47.836,8.903L44.087,10.065L42.702,8.814L40.609,9.569ZM49.05,5.7L47.201,5.943L47.935,5.566ZM173.667,25.73L174.412,24.894L176.601,25.595L174.875,26.643Z" fill="#72b7b2"/><path aria-label="properties.CONTINENT: North America" role="graphics-symbol" aria-roledescription="geoshape" transform="translate(0,0)" d="M86.407,44.973L87.368,44.52L87.327,44.801ZM87.702,44.855L87.991,44.79L87.677,45.558ZM86.365,46.973L86.926,46.327L86.889,47.862Z" fill="#54a24b"/><path aria-label="properties.CONTINENT: South America" role="graphics-symbol" aria-roledescription="geoshape" transform="translate(0,0)" d="M107.846,129.486L109.419,128.83L110.126,129.224L109.211,129.79Z" fill="#ff9da6"/><path aria-label="properties.CONTINENT: Europe" role="graphics-symbol" aria-roledescription="geoshape" transform="translate(0,0)" d="M155.579,1.967L158.994,1.837L161.478,2.206L158.662,3.043ZM168.106,6.672L160.623,7.264L157.813,10.194L157.227,14.029L153.766,14.238L153.221,11.683L161.171,6.521L166.128,5.747ZM164.453,1.835L162.218,2.052L159.173,1.752L162.048,1.648ZM163.281,2.611L162.132,2.77L161.165,2.679L162.237,2.386Z" fill="#72b7b2"/><path aria-label="properties.CONTINENT: North America" role="graphics-symbol" aria-roledescription="geoshape" transform="translate(0,0)" d="M126.001,1.111L136.199,0.907L139.357,1.087L133.614,1.217L143.746,1.462L139.59,1.797L140.8,1.812L139.652,2.278L140.154,2.955L138.392,3.102L139.401,4.146L136.136,5.131L137.632,6.037L135.579,5.612L134.923,6.285L137.218,6.341L125.996,9.247L122.346,13.076L119.457,12.504L118.235,10.5L118.023,8.12L120.732,6.456L118.425,6.642L119.013,5.949L120.632,6.09L118.447,5.491L119.377,4.997L118.151,3.582L112.936,3.343L111.7,2.945L114.311,2.798L111.039,2.539L115.469,2.054L114.45,1.816L117.645,1.33L127.016,1.36Z" fill="#54a24b"/><path aria-label="properties.CONTINENT: Seven seas (open ocean)" role="graphics-symbol" aria-roledescription="geoshape" transform="translate(0,0)" d="M198.36,127.654L199.893,127.016L199.842,127.188Z" fill="#b279a2"/><path aria-label="properties.CONTINENT: Asia" role="graphics-symbol" aria-roledescription="geoshape" transform="translate(0,0)" d="M255.697,85.377L256.555,84.284L257.734,84.245Z" fill="#e45756"/><path aria-label="properties.CONTINENT: Africa" role="graphics-symbol" aria-roledescription="geoshape" transform="translate(0,0)" d="M163.161,106.642L166.008,106.518L166.246,102.535L167.503,104.656L170.875,103.316L174.215,99.608L175.644,99.784L176.058,102.102L174.82,104.675L176.548,104.673L172.222,111.071L165.667,113.167L164.402,112.487ZM172.372,108.733L172.516,106.935L171.559,108.024Z" fill="#4c78a8"/><path aria-label="properties.CONTINENT: Africa" role="graphics-symbol" aria-roledescription="geoshape" transform="translate(0,0)" d="M172.516,106.935L172.372,108.733L171.559,108.024Z" fill="#4c78a8"/><path aria-label="properties.CONTINENT: North America" role="graphics-symbol" aria-roledescription="geoshape" transform="translate(0,0)" d="M58.109,38.475L66.129,39.293L67.205,41.918L69.205,41.377L71.526,45.568L69.95,49.303L70.69,53.3L74.42,53.246L75.822,50.893L78.599,50.294L77.253,53.932L74.54,54.425L74.657,56.38L72.921,58.1L64.272,53.896L60.644,39.906L59.327,39.672L60.252,48.893L57.729,43.571L58.773,42.669Z" fill="#54a24b"/><path aria-label="properties.CONTINENT: South America" role="graphics-symbol" aria-roledescription="geoshape" transform="translate(0,0)" d="M104.332,108.385L107.747,110.313L108.235,112.756L104.525,112.252Z" fill="#ff9da6"/><path aria-label="properties.CONTINENT: South America" role="graphics-symbol" aria-roledescription="geoshape" transform="translate(0,0)" d="M108.436,112.106L107.747,110.313L104.332,108.385L106.759,104.007L104.387,99.9L102.593,99.607L101.552,93.177L99.949,93.13L99.385,90.34L95.054,87.843L94.953,85.796L90.669,87.212L90.59,85.488L89.201,86.128L87.478,83.25L88.275,80.683L90.777,79.568L90.776,72.687L94.393,73.746L96.261,72.13L95.078,70.008L98.583,68.701L99.934,73.141L105.119,72.217L106.539,69.84L107.272,74.739L112.226,77.73L116.138,77.938L119.898,80.54L120.693,83.044L117.632,89.53L116.506,99.439L111.408,102.663L111.002,106.746Z" fill="#ff9da6"/><path aria-label="properties.CONTINENT: South America" role="graphics-symbol" aria-roledescription="geoshape" transform="translate(0,0)" d="M91.522,87.147L94.953,85.796L95.054,87.843L99.385,90.34L99.949,93.13L101.552,93.177L102.346,97.267L99.051,96.894L98.728,99.781L94.63,100.466Z" fill="#ff9da6"/><path aria-label="properties.CONTINENT: South America" role="graphics-symbol" aria-roledescription="geoshape" transform="translate(0,0)" d="M90.777,79.568L88.275,80.683L87.478,83.25L92.41,88.969L91.748,95.465L86.507,91.324L81.024,80.069L81.911,78.546L83.366,79.853L86.268,74.715L88.022,77.292L90.599,77.769Z" fill="#ff9da6"/><path aria-label="properties.CONTINENT: South America" role="graphics-symbol" aria-roledescription="geoshape" transform="translate(0,0)" d="M93.268,73.215L90.776,72.687L90.777,79.568L90.599,77.769L84.299,74.197L82.981,72.713L84.621,70.244L84.604,64.91L90.092,60.539L88.178,64.196L89.159,66.656L93.021,67.678Z" fill="#ff9da6"/><path aria-label="properties.CONTINENT: North America" role="graphics-symbol" aria-roledescription="geoshape" transform="translate(0,0)" d="M84.718,64.744L84.161,66.391L83.253,64.373L81.617,66.395L80.078,63.827L83.387,63.74Z" fill="#54a24b"/><path aria-label="properties.CONTINENT: North America" role="graphics-symbol" aria-roledescription="geoshape" transform="translate(0,0)" d="M79.622,62.167L79.937,65.251L77.691,62.216Z" fill="#54a24b"/><path aria-label="properties.CONTINENT: North America" role="graphics-symbol" aria-roledescription="geoshape" transform="translate(0,0)" d="M79.622,62.167L77.906,61.997L76.495,59.936L80.588,57.586Z" fill="#54a24b"/><path aria-label="properties.CONTINENT: North America" role="graphics-symbol" aria-roledescription="geoshape" transform="translate(0,0)" d="M80.588,57.586L76.801,59.852L75.308,58.229L76.759,56.61Z" fill="#54a24b"/><path aria-label="properties.CONTINENT: North America" role="graphics-symbol" aria-roledescription="geoshape" transform="translate(0,0)" d="M74.58,59.005L76.575,58.949L76.331,59.666Z" fill="#54a24b"/><path aria-label="properties.CONTINENT: North America" role="graphics-symbol" aria-roledescription="geoshape" transform="translate(0,0)" d="M72.921,58.1L74.657,56.38L74.54,54.425L76.081,54.436L76.466,56.764L75.308,58.229Z" fill="#54a24b"/><path aria-label="properties.CONTINENT: North America" role="graphics-symbol" aria-roledescription="geoshape" transform="translate(0,0)" d="M75.655,56.585L77.047,53.833L75.904,56.585Z" fill="#54a24b"/><path aria-label="properties.CONTINENT: South America" role="graphics-symbol" aria-roledescription="geoshape" transform="translate(0,0)" d="M98.583,68.701L95.078,70.008L96.261,72.13L93.732,73.82L92.502,71.421L93.021,67.678L89.159,66.656L88.63,62.721L89.529,61.408L90.086,61.218L89.278,63.385L89.9,64.213L91.294,60.781L92.611,62.603L97.945,62.42L99.568,65.089Z" fill="#ff9da6"/><path aria-label="properties.CONTINENT: South America" role="graphics-symbol" aria-roledescription="geoshape" transform="translate(0,0)" d="M102.058,72.475L99.417,72.604L98.041,67.834L99.568,65.089L101.654,67.818L100.825,70.003Z" fill="#ff9da6"/><path aria-label="properties.CONTINENT: South America" role="graphics-symbol" aria-roledescription="geoshape" transform="translate(0,0)" d="M103.775,72.003L102.058,72.475L101.182,70.833L101.654,67.818L104.349,68.065Z" fill="#ff9da6"/><path aria-label="properties.CONTINENT: Europe" role="graphics-symbol" aria-roledescription="geoshape" transform="translate(0,0)" d="M106.248,69.894L105.119,72.217L103.775,72.003L104.349,68.065ZM151.833,20.427L155.81,22.325L154.429,24.423L155.553,27.28L151.443,28.581L148.688,27.54L149.225,25.085L146.835,22.627L148.943,22.663L148.73,21.643ZM156.63,29.32L157.022,27.937L156.978,29.519Z" fill="#72b7b2"/><path aria-label="properties.CONTINENT: South America" role="graphics-symbol" aria-roledescription="geoshape" transform="translate(0,0)" d="M86.042,74.824L83.366,79.853L81.832,79.713L82.036,73.77Z" fill="#ff9da6"/><path aria-label="properties.CONTINENT: North America" role="graphics-symbol" aria-roledescription="geoshape" transform="translate(0,0)" d="M94.487,53.642L95.695,53.968L94.332,54.281Z" fill="#54a24b"/><path aria-label="properties.CONTINENT: North America" role="graphics-symbol" aria-roledescription="geoshape" transform="translate(0,0)" d="M85.124,53.97L86.349,53.775L86.84,54.348Z" fill="#54a24b"/><path aria-label="properties.CONTINENT: North America" role="graphics-symbol" aria-roledescription="geoshape" transform="translate(0,0)" d="M82.897,48.487L85.951,49.228L88.933,51.684L85.902,52.159L83.157,49.092L80.384,49.906Z" fill="#54a24b"/><path aria-label="properties.CONTINENT: Africa" role="graphics-symbol" aria-roledescription="geoshape" transform="translate(0,0)" d="M175.644,99.784L173.104,98.942L171.066,94.783L175.364,92.289L177.434,93.64Z" fill="#4c78a8"/><path aria-label="properties.CONTINENT: Africa" role="graphics-symbol" aria-roledescription="geoshape" transform="translate(0,0)" d="M174.215,99.608L170.875,103.316L167.503,104.656L166.246,102.535L167.428,95.358L171.066,94.783Z" fill="#4c78a8"/><path aria-label="properties.CONTINENT: Africa" role="graphics-symbol" aria-roledescription="geoshape" transform="translate(0,0)" d="M167.428,95.358L166.008,106.518L163.161,106.642L159.843,94.298L170.919,94.607Z" fill="#4c78a8"/><path aria-label="properties.CONTINENT: Africa" role="graphics-symbol" aria-roledescription="geoshape" transform="translate(0,0)" d="M138.479,59.264L135.347,57.885L137.949,55.788L140.414,60.464L136.075,60.53Z" fill="#4c78a8"/><path aria-label="properties.CONTINENT: Africa" role="graphics-symbol" aria-roledescription="geoshape" transform="translate(0,0)" d="M140.414,60.464L140.345,57.145L145.464,57.017L144.85,46.558L153.618,52.936L153.125,56.943L146.728,59.301L145.532,62.811Z" fill="#4c78a8"/><path aria-label="properties.CONTINENT: Africa" role="graphics-symbol" aria-roledescription="geoshape" transform="translate(0,0)" d="M136.051,50.893L139.463,50.532L140.41,45.499L143.062,45.556L143.107,43.923L146.093,46.539L144.85,46.558L145.464,57.017L139.906,58.012L137.949,55.788L136.363,56.307Z" fill="#4c78a8"/><path aria-label="properties.CONTINENT: Africa" role="graphics-symbol" aria-roledescription="geoshape" transform="translate(0,0)" d="M152.369,67.492L150.739,62.698L152.482,60.698L153.287,62.398Z" fill="#4c78a8"/><path aria-label="properties.CONTINENT: Africa" role="graphics-symbol" aria-roledescription="geoshape" transform="translate(0,0)" d="M162.231,48.844L163.195,51.57L161.421,58.293L162.002,60.418L154.648,58.857L153.126,61.35L150.948,60.002L150.401,57.661L153.125,56.943L153.618,52.936L159.879,48.177Z" fill="#4c78a8"/><path aria-label="properties.CONTINENT: Africa" role="graphics-symbol" aria-roledescription="geoshape" transform="translate(0,0)" d="M152.369,67.492L153.749,58.991L161.057,59.162L162.343,60.868L160.033,66.668L157.299,69.19L155.093,69.772Z" fill="#4c78a8"/><path aria-label="properties.CONTINENT: Africa" role="graphics-symbol" aria-roledescription="geoshape" transform="translate(0,0)" d="M162.257,59.993L163.136,63.252L161.867,63.744L163.148,65.857L162.37,69.235L163.63,72.672L158.284,72.035L157.513,68.382L160.033,66.668Z" fill="#4c78a8"/><path aria-label="properties.CONTINENT: Africa" role="graphics-symbol" aria-roledescription="geoshape" transform="translate(0,0)" d="M150.046,62.43L151.669,67.625L150.986,67.869Z" fill="#4c78a8"/><path aria-label="properties.CONTINENT: Africa" role="graphics-symbol" aria-roledescription="geoshape" transform="translate(0,0)" d="M150.108,62.076L150.986,67.869L147.665,68.936L147.611,62.14Z" fill="#4c78a8"/><path aria-label="properties.CONTINENT: Africa" role="graphics-symbol" aria-roledescription="geoshape" transform="translate(0,0)" d="M143.316,62.998L147.702,63.638L147.665,68.936L143.544,69.656Z" fill="#4c78a8"/><path aria-label="properties.CONTINENT: Africa" role="graphics-symbol" aria-roledescription="geoshape" transform="translate(0,0)" d="M138.58,60.302L142.417,60.616L143.082,65.863L140.71,63.18L138.897,64.479L137.345,62.052Z" fill="#4c78a8"/><path aria-label="properties.CONTINENT: Africa" role="graphics-symbol" aria-roledescription="geoshape" transform="translate(0,0)" d="M136.075,60.53L138.58,60.302L138.528,61.178L137.345,62.052Z" fill="#4c78a8"/><path aria-label="properties.CONTINENT: Africa" role="graphics-symbol" aria-roledescription="geoshape" transform="translate(0,0)" d="M141.44,65.044L143.671,68.122L143.544,69.656L140.401,66.891Z" fill="#4c78a8"/><path aria-label="properties.CONTINENT: Africa" role="graphics-symbol" aria-roledescription="geoshape" transform="translate(0,0)" d="M138.897,64.479L140.71,63.18L141.44,65.044L140.401,66.891Z" fill="#4c78a8"/><path aria-label="properties.CONTINENT: Africa" role="graphics-symbol" aria-roledescription="geoshape" transform="translate(0,0)" d="M145.532,62.811L146.497,59.576L149.197,57.61L151.916,60.258L150.846,62.101L147.611,62.14L147.702,63.638Z" fill="#4c78a8"/><path aria-label="properties.CONTINENT: Africa" role="graphics-symbol" aria-roledescription="geoshape" transform="translate(0,0)" d="M173.302,68.662L169.104,70.039L166.6,68.893L163.689,72.054L162.348,68.413L163.019,66.165L169.341,61.936Z" fill="#4c78a8"/><path aria-label="properties.CONTINENT: Africa" role="graphics-symbol" aria-roledescription="geoshape" transform="translate(0,0)" d="M165.754,70.639L163.676,78.695L160.194,80.413L159.836,77.815L162.344,76.176L161.195,72.055L163.63,72.672Z" fill="#4c78a8"/><path aria-label="properties.CONTINENT: Africa" role="graphics-symbol" aria-roledescription="geoshape" transform="translate(0,0)" d="M159.666,72.061L162.218,73.279L162.344,76.176L159.504,79.202L157.563,75.922Z" fill="#4c78a8"/><path aria-label="properties.CONTINENT: Africa" role="graphics-symbol" aria-roledescription="geoshape" transform="translate(0,0)" d="M158.154,73.493L159.666,72.061L159.676,73.439Z" fill="#4c78a8"/><path aria-label="properties.CONTINENT: Africa" role="graphics-symbol" aria-roledescription="geoshape" transform="translate(0,0)" d="M176.076,84.179L178.133,85.7L177.911,90.561L172.533,95.008L169.376,94.545L168.501,89.35L170.248,89.364L170.23,87.119L175.002,89.755L174.115,85.118Z" fill="#4c78a8"/><path aria-label="properties.CONTINENT: Africa" role="graphics-symbol" aria-roledescription="geoshape" transform="translate(0,0)" d="M177.752,85.193L178.998,86.248L179.942,91.281L179.248,93.738L177.485,90.269Z" fill="#4c78a8"/><path aria-label="properties.CONTINENT: Africa" role="graphics-symbol" aria-roledescription="geoshape" transform="translate(0,0)" d="M179.171,87.791L184.081,86.427L184.193,91.371L178.81,97.061L178.953,101.833L175.937,104.664L175.644,99.784L177.434,93.64L175.325,91.489L177.911,90.561L179.248,93.738Z" fill="#4c78a8"/><path aria-label="properties.CONTINENT: Africa" role="graphics-symbol" aria-roledescription="geoshape" transform="translate(0,0)" d="M175.839,103.702L174.82,104.675L175.208,103.581Z" fill="#4c78a8"/><path aria-label="properties.CONTINENT: Africa" role="graphics-symbol" aria-roledescription="geoshape" transform="translate(0,0)" d="M160.194,80.413L160.802,80.36L160.414,81.272ZM160.53,81.626L163.926,81.372L164.865,83.87L168.479,82.984L168.746,87.298L170.309,87.47L170.248,89.364L168.501,89.35L169.376,94.545L159.843,94.298L161.654,87.539Z" fill="#4c78a8"/><path aria-label="properties.CONTINENT: Africa" role="graphics-symbol" aria-roledescription="geoshape" transform="translate(0,0)" d="M174.737,77.899L176.197,78.494L174.982,79.798Z" fill="#4c78a8"/><path aria-label="properties.CONTINENT: Asia" role="graphics-symbol" aria-roledescription="geoshape" transform="translate(0,0)" d="M178.114,38.294L177.643,39.175L177.907,41.672L177.168,39.855Z" fill="#e45756"/><path aria-label="properties.CONTINENT: Asia" role="graphics-symbol" aria-roledescription="geoshape" transform="translate(0,0)" d="M178.595,36.744L177.595,37.896L178.409,36.339Z" fill="#e45756"/><path aria-label="properties.CONTINENT: Africa" role="graphics-symbol" aria-roledescription="geoshape" transform="translate(0,0)" d="M191.711,88.866L192.129,92.511L188.311,102.724L186.851,103.44L185.54,100.361L186.624,94.419Z" fill="#4c78a8"/><path aria-label="properties.CONTINENT: Asia" role="graphics-symbol" aria-roledescription="geoshape" transform="translate(0,0)" d="M178.021,38.623L177.674,39.714L177.718,38.478Z" fill="#e45756"/><path aria-label="properties.CONTINENT: Africa" role="graphics-symbol" aria-roledescription="geoshape" transform="translate(0,0)" d="M135.957,59.663L137.452,58.846L138.479,59.264Z" fill="#4c78a8"/><path aria-label="properties.CONTINENT: Africa" role="graphics-symbol" aria-roledescription="geoshape" transform="translate(0,0)" d="M157.614,40.817L155.95,36.852L157.365,33.526L158.54,33.787L157.985,36.611L159.083,37.848Z" fill="#4c78a8"/><path aria-label="properties.CONTINENT: Africa" role="graphics-symbol" aria-roledescription="geoshape" transform="translate(0,0)" d="M143.107,43.923L143.158,42.375L149.059,38.76L149.154,35.189L156.547,33.935L155.95,36.852L157.902,41.754L157.618,45.325L159.879,48.177L152.701,53.045Z" fill="#4c78a8"/><path aria-label="properties.CONTINENT: Asia" role="graphics-symbol" aria-roledescription="geoshape" transform="translate(0,0)" d="M178.021,38.623L180.422,37.597L180.924,38.867L179.291,39.551L180.219,40.605L178.859,41.995L177.907,41.672Z" fill="#e45756"/><path aria-label="properties.CONTINENT: Asia" role="graphics-symbol" aria-roledescription="geoshape" transform="translate(0,0)" d="M192.058,47.332L194.053,47.467L195.616,45.736L195.12,49.245Z" fill="#e45756"/><path aria-label="properties.CONTINENT: Asia" role="graphics-symbol" aria-roledescription="geoshape" transform="translate(0,0)" d="M191.929,46.277L191.188,45.988L191.526,45.303Z" fill="#e45756"/><path aria-label="properties.CONTINENT: Asia" role="graphics-symbol" aria-roledescription="geoshape" transform="translate(0,0)" d="M187.674,41.08L188.817,42.684L187.25,42.1Z" fill="#e45756"/><path aria-label="properties.CONTINENT: Asia" role="graphics-symbol" aria-roledescription="geoshape" transform="translate(0,0)" d="M180.924,38.867L181.863,34.532L184.385,33.708L188.703,41.221L185.754,42.015Z" fill="#e45756"/><path aria-label="properties.CONTINENT: Asia" role="graphics-symbol" aria-roledescription="geoshape" transform="translate(0,0)" d="M195.47,51.999L195.863,46.593L199.079,49.45L197.839,53.17L194.309,55.729L193.119,53.109ZM195.692,45.093L195.402,45.367L195.577,44.999Z" fill="#e45756"/><path aria-label="properties.CONTINENT: Oceania" role="graphics-symbol" aria-roledescription="geoshape" transform="translate(0,0)" d="M289.574,92.72L289.907,93.363L289.588,93.511ZM289.668,92.549L289.261,92.159L289.479,91.298Z" fill="#eeca3b"/><path aria-label="properties.CONTINENT: Asia" role="graphics-symbol" aria-roledescription="geoshape" transform="translate(0,0)" d="M237.31,62.514L236.315,58.452L240.315,59.23L239.583,62.141Z" fill="#e45756"/><path aria-label="properties.CONTINENT: Asia" role="graphics-symbol" aria-roledescription="geoshape" transform="translate(0,0)" d="M238.173,58.399L236.315,58.452L236.317,60.754L234.034,59.375L233.877,64.097L236.635,67.534L235.839,68.14L233.066,65.108L233.84,61.086L230.792,53.726L232.594,51.537L234.053,54.766L237.11,54.859Z" fill="#e45756"/><path aria-label="properties.CONTINENT: Asia" role="graphics-symbol" aria-roledescription="geoshape" transform="translate(0,0)" d="M239.998,58.478L238.173,58.399L236.294,53.953L234.053,54.766L232.594,51.537L233.356,49.441L236.064,51.16L236,52.814Z" fill="#e45756"/><path aria-label="properties.CONTINENT: Asia" role="graphics-symbol" aria-roledescription="geoshape" transform="translate(0,0)" d="M233.072,49.956L230.792,53.726L233.84,61.086L233.231,63.308L230.936,55.418L228.63,56.416L225.906,50.369L228.038,42.994L229.374,43.801L229.607,47.712Z" fill="#e45756"/><path aria-label="properties.CONTINENT: Asia" role="graphics-symbol" aria-roledescription="geoshape" transform="translate(0,0)" d="M238.035,62.68L240.417,60.583L239.956,57.354L233.74,49.281L236.065,48.308L238.818,50.284L237.511,53.044L241.038,57.27L241.961,61.342L238.963,64.824Z" fill="#e45756"/><path aria-label="properties.CONTINENT: Asia" role="graphics-symbol" aria-roledescription="geoshape" transform="translate(0,0)" d="M247.178,28.7L247.178,28.7L247.178,28.7ZM246.961,28.531L246.281,31.117L247.608,32.499L245.099,32.762L243.95,30.314Z" fill="#e45756"/><path aria-label="properties.CONTINENT: Asia" role="graphics-symbol" aria-roledescription="geoshape" transform="translate(0,0)" d="M246.416,33.123L247.576,32.257L250.133,35.837L248.476,36.55Z" fill="#e45756"/><path aria-label="properties.CONTINENT: Asia" role="graphics-symbol" aria-roledescription="geoshape" transform="translate(0,0)" d="M211.944,22.073L214.312,20.732L218.41,21.688L218.21,19.641L226.561,22.086L231.944,21.543L232.686,23.5L236.006,24.125L228.334,29.306L221.375,28.211L216.183,25.768L215.424,24.273Z" fill="#e45756"/><path aria-label="properties.CONTINENT: Asia" role="graphics-symbol" aria-roledescription="geoshape" transform="translate(0,0)" d="M228.038,42.994L226.07,49.746L224.459,48.142L225.051,46.537L221.551,44.945L223.051,50.132L217.091,56.571L217.416,62.827L215.671,65.546L209.769,50.5L208.081,51.029L205.672,47.936L207.872,47.211L206.069,44.412L209.265,38.751L207.477,36.624L210.277,35.415L212.229,39.543L214.502,40.949L214.085,42.425L217.059,43.956L221.154,44.979L221.206,43.181L224.235,44.522L226.671,41.724Z" fill="#e45756"/><path aria-label="properties.CONTINENT: Asia" role="graphics-symbol" aria-roledescription="geoshape" transform="translate(0,0)" d="M224.459,48.142L226.15,51.257L224.86,48.951L223.081,49.73L221.551,44.945L225.051,46.537Z" fill="#e45756"/><path aria-label="properties.CONTINENT: Asia" role="graphics-symbol" aria-roledescription="geoshape" transform="translate(0,0)" d="M222.172,42.957L224.235,44.522L221.583,44.242Z" fill="#e45756"/><path aria-label="properties.CONTINENT: Asia" role="graphics-symbol" aria-roledescription="geoshape" transform="translate(0,0)" d="M220.78,43.407L220.487,44.997L214.085,42.425L214.76,40.696Z" fill="#e45756"/><path aria-label="properties.CONTINENT: Asia" role="graphics-symbol" aria-roledescription="geoshape" transform="translate(0,0)" d="M210.277,35.415L207.477,36.624L209.265,38.751L206.069,44.412L207.872,47.211L199.974,46.426L201.116,44.61L198.509,41.324L202.847,41.262L205.331,34.378L207.673,33.746Z" fill="#e45756"/><path aria-label="properties.CONTINENT: Asia" role="graphics-symbol" aria-roledescription="geoshape" transform="translate(0,0)" d="M197.38,35.255L203.91,32.383L205.259,34.146L207.673,33.746L205.016,34.822L204.692,39.139L202.847,41.262L198.509,41.324Z" fill="#e45756"/><path aria-label="properties.CONTINENT: Asia" role="graphics-symbol" aria-roledescription="geoshape" transform="translate(0,0)" d="M202.055,33.734L201.208,31.292L202.985,29.93L202.557,31.345L205.77,31.44L207.442,33.456L205.259,34.146L203.91,32.383Z" fill="#e45756"/><path aria-label="properties.CONTINENT: Asia" role="graphics-symbol" aria-roledescription="geoshape" transform="translate(0,0)" d="M202.754,28.656L204.783,27.659L209.621,28.574L205.77,31.44L202.557,31.345L204.806,30.022Z" fill="#e45756"/><path aria-label="properties.CONTINENT: Asia" role="graphics-symbol" aria-roledescription="geoshape" transform="translate(0,0)" d="M189.178,29.125L190.208,28.599L192.727,29.575L193.459,28.186L200.986,33.513L198.267,35.644L193.785,32.842L191.386,33.679L189.764,30.843L191.063,29.939Z" fill="#e45756"/><path aria-label="properties.CONTINENT: Asia" role="graphics-symbol" aria-roledescription="geoshape" transform="translate(0,0)" d="M188.703,41.221L185.494,36.986L185.681,35.227L183.425,31.443L186.377,31.29L189.101,34.009L193.219,32.749L197.091,34.397L198.509,41.324L201.116,44.61L199.974,46.426L196.531,45.709Z" fill="#e45756"/><path aria-label="properties.CONTINENT: Asia" role="graphics-symbol" aria-roledescription="geoshape" transform="translate(0,0)" d="M178.114,38.294L178.288,34.066L182.518,33.648L181.98,36.519Z" fill="#e45756"/><path aria-label="properties.CONTINENT: Asia" role="graphics-symbol" aria-roledescription="geoshape" transform="translate(0,0)" d="M185.378,32.099L182.914,30.625L182.684,29.8L184.224,30.075Z" fill="#e45756"/><path aria-label="properties.CONTINENT: Europe" role="graphics-symbol" aria-roledescription="geoshape" transform="translate(0,0)" d="M157.227,14.029L158.069,12.18L157.486,10.851L159.964,7.603L162.106,6.939L163.963,7.651L164.469,8.883L161.199,11.121L160.9,12.145L162.105,13.088L160.642,16.222L158.749,16.832Z" fill="#72b7b2"/><path aria-label="properties.CONTINENT: Europe" role="graphics-symbol" aria-roledescription="geoshape" transform="translate(0,0)" d="M168.803,16.169L170.712,16.676L172.363,18.52L171.98,19.594L166.364,20.05L166.009,18.043Z" fill="#72b7b2"/><path aria-label="properties.CONTINENT: Europe" role="graphics-symbol" aria-roledescription="geoshape" transform="translate(0,0)" d="M171.98,19.594L178.264,21.8L178.409,23.342L175.45,25.344L172.869,24.441L170.928,25.752L171.727,24.703L170.487,23.142L165.764,22.865L166.364,20.05Z" fill="#72b7b2"/><path aria-label="properties.CONTINENT: Europe" role="graphics-symbol" aria-roledescription="geoshape" transform="translate(0,0)" d="M166.009,18.043L166.834,20.817L166.178,22.316L161.387,21.068L159.708,18.836L161.935,17.255Z" fill="#72b7b2"/><path aria-label="properties.CONTINENT: Europe" role="graphics-symbol" aria-roledescription="geoshape" transform="translate(0,0)" d="M162.168,23.137L160.633,24.696L156.885,24.074L159.335,23.738L159.704,22.452Z" fill="#72b7b2"/><path aria-label="properties.CONTINENT: Europe" role="graphics-symbol" aria-roledescription="geoshape" transform="translate(0,0)" d="M165.764,22.865L165.251,24.804L161.728,24.306L162.168,23.137Z" fill="#72b7b2"/><path aria-label="properties.CONTINENT: Europe" role="graphics-symbol" aria-roledescription="geoshape" transform="translate(0,0)" d="M169.012,23.048L170.487,23.142L171.727,24.703L170.577,25.578Z" fill="#72b7b2"/><path aria-label="properties.CONTINENT: Europe" role="graphics-symbol" aria-roledescription="geoshape" transform="translate(0,0)" d="M169.012,23.048L171.601,25.762L171.076,27.267L166.937,27.156L164.693,24.98Z" fill="#72b7b2"/><path aria-label="properties.CONTINENT: Europe" role="graphics-symbol" aria-roledescription="geoshape" transform="translate(0,0)" d="M167.776,16.623L166.009,18.043L164.091,16.282L166.569,16.004Z" fill="#72b7b2"/><path aria-label="properties.CONTINENT: Europe" role="graphics-symbol" aria-roledescription="geoshape" transform="translate(0,0)" d="M167.991,15.117L168.803,16.169L167.776,16.623L164.091,16.282L164.827,14.895Z" fill="#72b7b2"/><path aria-label="properties.CONTINENT: Europe" role="graphics-symbol" aria-roledescription="geoshape" transform="translate(0,0)" d="M168.093,13.551L167.991,15.117L165.149,13.773L166.709,13.447Z" fill="#72b7b2"/><path aria-label="properties.CONTINENT: Europe" role="graphics-symbol" aria-roledescription="geoshape" transform="translate(0,0)" d="M159.674,18.175L160.518,20.463L158.649,21.206L159.335,23.738L155.421,23.597L155.81,22.325L154.319,21.329L154.911,18.228L156.75,17.146Z" fill="#72b7b2"/><path aria-label="properties.CONTINENT: Europe" role="graphics-symbol" aria-roledescription="geoshape" transform="translate(0,0)" d="M167.227,29.56L166.937,27.156L171.076,27.267L170.902,28.907Z" fill="#72b7b2"/><path aria-label="properties.CONTINENT: Europe" role="graphics-symbol" aria-roledescription="geoshape" transform="translate(0,0)" d="M170.439,35.614L169.266,36.004L168.292,35.634L168.393,35.199ZM165.299,31.248L169.925,29.341L167.101,30.622L168.451,33.219L167.391,34.48Z" fill="#72b7b2"/><path aria-label="properties.CONTINENT: Asia" role="graphics-symbol" aria-roledescription="geoshape" transform="translate(0,0)" d="M184.385,33.708L172.971,34.75L171.324,34.227L169.863,31.408L175.001,28.896L181.862,29.32L183.883,31.16ZM169.528,29.083L170.902,28.907L171.739,29.597L169.92,30.726Z" fill="#e45756"/><path aria-label="properties.CONTINENT: Europe" role="graphics-symbol" aria-roledescription="geoshape" transform="translate(0,0)" d="M165.834,30.045L164.68,30.628L164.695,28.247L165.324,28.703Z" fill="#72b7b2"/><path aria-label="properties.CONTINENT: Europe" role="graphics-symbol" aria-roledescription="geoshape" transform="translate(0,0)" d="M162.019,24.629L164.185,25.815L161.573,26.21L163.761,28.448L160.024,25.909Z" fill="#72b7b2"/><path aria-label="properties.CONTINENT: Europe" role="graphics-symbol" aria-roledescription="geoshape" transform="translate(0,0)" d="M154.902,23.67L157.554,24.648L154.433,24.844Z" fill="#72b7b2"/><path aria-label="properties.CONTINENT: Europe" role="graphics-symbol" aria-roledescription="geoshape" transform="translate(0,0)" d="M154.138,21.363L154.443,21.923L154.08,21.865Z" fill="#72b7b2"/><path aria-label="properties.CONTINENT: Europe" role="graphics-symbol" aria-roledescription="geoshape" transform="translate(0,0)" d="M153.532,20.14L154.08,21.865L151.833,20.427Z" fill="#72b7b2"/><path aria-label="properties.CONTINENT: Europe" role="graphics-symbol" aria-roledescription="geoshape" transform="translate(0,0)" d="M154.787,18.408L154.375,20.73L152.386,20.253L153.302,18.741Z" fill="#72b7b2"/><path aria-label="properties.CONTINENT: Europe" role="graphics-symbol" aria-roledescription="geoshape" transform="translate(0,0)" d="M143.365,29.03L145.318,29.517L144.059,34.045L142.857,32.132Z" fill="#72b7b2"/><path aria-label="properties.CONTINENT: Europe" role="graphics-symbol" aria-roledescription="geoshape" transform="translate(0,0)" d="M144.376,33.782L145.318,29.517L143.152,27.921L152.301,28.455L148.439,34.211Z" fill="#72b7b2"/><path aria-label="properties.CONTINENT: Europe" role="graphics-symbol" aria-roledescription="geoshape" transform="translate(0,0)" d="M145.01,17.023L145.418,19.457L143.2,19.839Z" fill="#72b7b2"/><path aria-label="properties.CONTINENT: Oceania" role="graphics-symbol" aria-roledescription="geoshape" transform="translate(0,0)" d="M285.741,97.433L287.056,99.684L285.392,97.417Z" fill="#eeca3b"/><path aria-label="properties.CONTINENT: Oceania" role="graphics-symbol" aria-roledescription="geoshape" transform="translate(0,0)" d="M286.582,86.574L286.32,86.997L286.128,86.299ZM286.137,84.156L286.389,85.822L285.85,84.156ZM285.477,85.385L284.969,85.833L284.949,85.207ZM284.126,83.017L285.253,84.405L283.985,83.133ZM283.135,82.677L283.427,83.049L282.685,82.195Z" fill="#eeca3b"/><path aria-label="properties.CONTINENT: Oceania" role="graphics-symbol" aria-roledescription="geoshape" transform="translate(0,0)" d="M286.42,116.121L280.55,119.684L283.747,115.804L284.276,112.893L284.576,115.98ZM270.396,124.406L279.821,118.911L280.192,119.75L273.522,124.115Z" fill="#eeca3b"/><path aria-label="properties.CONTINENT: Oceania" role="graphics-symbol" aria-roledescription="geoshape" transform="translate(0,0)" d="M260.747,119.22L259.166,121.556L257.54,121.881L258.613,119.117ZM253.741,109.735L241.565,113.444L239.654,112.549L243.206,100.03L249.903,96.949L255.317,90.852L258.44,91.684L261.543,87.347L264.885,88.173L263.347,91.716L266.525,94.755L270.185,86.825L271.241,96.144L273.521,99.95L273.163,106.143L264.82,115.849L260.94,117.465L257.288,116.447L257.597,112.744L256.028,113.645L258.111,111.204L255.588,113.264Z" fill="#eeca3b"/><path aria-label="properties.CONTINENT: Asia" role="graphics-symbol" aria-roledescription="geoshape" transform="translate(0,0)" d="M219.299,66.05L218.185,67.824L217.714,63.432L218.35,64.063Z" fill="#e45756"/><path aria-label="properties.CONTINENT: Asia" role="graphics-symbol" aria-roledescription="geoshape" transform="translate(0,0)" d="M241.478,53.466L239.884,52.7L241.481,51.913ZM209.621,28.574L208.358,26.116L211.944,22.073L215.424,24.273L216.183,25.768L221.375,28.211L231.027,28.41L231.5,25.942L236.157,24.454L232.242,23.126L233.32,18.451L236.319,18.998L243.52,23.442L245.887,22.814L246.916,25.902L245.529,26.069L246.961,28.531L241.877,31.972L241.149,29.943L239.293,32.132L243.663,33.421L242.515,36.014L246.216,39.358L247.562,43.033L246.531,47.003L241.126,51.621L236.065,48.308L233.356,49.441L233.789,50.701L231.435,49.661L229.607,47.712L229.374,43.801L226.671,41.724L221.507,44.026L212.229,39.543L211.493,36.62L205.77,31.44Z" fill="#e45756"/><path aria-label="properties.CONTINENT: Asia" role="graphics-symbol" aria-roledescription="geoshape" transform="translate(0,0)" d="M249.123,47.17L249.191,48.923L249.111,49.824L248.057,48.085Z" fill="#e45756"/><path aria-label="properties.CONTINENT: Europe" role="graphics-symbol" aria-roledescription="geoshape" transform="translate(0,0)" d="M155.036,25.107L160.032,24.624L159.315,26.9L163.897,30.525L163.881,31.063L162.757,30.439L162.051,32.963L161.693,30.828L157.573,27.064L155.553,27.28ZM161.331,32.727L161.691,34.266L159.586,33.261L159.664,32.744ZM156.196,29.94L157.453,30.382L156.765,31.963Z" fill="#72b7b2"/><path aria-label="properties.CONTINENT: Europe" role="graphics-symbol" aria-roledescription="geoshape" transform="translate(0,0)" d="M156.75,17.146L155.443,15.868L157.012,14.914L157.316,15.934ZM158.309,16.217L158.22,17.298L157.478,16.83L157.357,16.488Z" fill="#72b7b2"/><path aria-label="properties.CONTINENT: Europe" role="graphics-symbol" aria-roledescription="geoshape" transform="translate(0,0)" d="M146.271,17.503L144.961,17.919L145.01,17.023ZM147.981,18.474L146.027,15.67L146.837,14.205L148.805,14.95L148.013,16.329L151.24,19.043L151.093,20.303L146.044,21.301L147.722,20.183L146.457,19.69L146.971,18.397Z" fill="#72b7b2"/><path aria-label="properties.CONTINENT: Europe" role="graphics-symbol" aria-roledescription="geoshape" transform="translate(0,0)" d="M141.4,8.59L141.823,9.469L138.563,10.592L136.094,10.268L136.761,9.962L135.504,9.629L136.626,9.3L135.391,9.145Z" fill="#72b7b2"/><path aria-label="properties.CONTINENT: Asia" role="graphics-symbol" aria-roledescription="geoshape" transform="translate(0,0)" d="M183.689,29.648L187.978,30.622L187.282,32.55L184.459,30.975ZM184.648,31.398L184.561,31.995L183.883,31.16Z" fill="#e45756"/><path aria-label="properties.CONTINENT: Asia" role="graphics-symbol" aria-roledescription="geoshape" transform="translate(0,0)" d="M179.507,27.528L183.781,28.426L184.948,29.713L181.077,29.367Z" fill="#e45756"/><path aria-label="properties.CONTINENT: Asia" role="graphics-symbol" aria-roledescription="geoshape" transform="translate(0,0)" d="M251.56,60.168L250.984,59.308L252.072,59.756ZM253.982,64.343L253.661,62.231L254.554,61.834ZM255.916,63.504L256.399,68.266L254.654,65.696L253.297,66.427ZM250.968,62.603L249.147,65.088L250.686,61.679ZM251.54,53.971L251.983,58.336L253.96,58.952L254.316,60.358L250.234,57.124L250.12,53.659ZM252.935,62.732L252.592,61.087L253.687,61.436ZM254.471,60.334L256.022,62.045L255.344,63.079Z" fill="#e45756"/><path aria-label="properties.CONTINENT: Asia" role="graphics-symbol" aria-roledescription="geoshape" transform="translate(0,0)" d="M234.875,67.257L237.383,68.33L238.643,73.169L236.194,71.49ZM251.144,68.464L248.409,69.722L247.47,73.012L243.401,73.118L247.969,69.71L248.926,66.732Z" fill="#e45756"/><path aria-label="properties.CONTINENT: Asia" role="graphics-symbol" aria-roledescription="geoshape" transform="translate(0,0)" d="M247.977,68.418L247.969,69.71L247.403,70.064L246.985,69.471Z" fill="#e45756"/><path aria-label="properties.CONTINENT: Europe" role="graphics-symbol" aria-roledescription="geoshape" transform="translate(0,0)" d="M160.032,24.624L161.728,24.306L162.019,24.629L161.214,25.612Z" fill="#72b7b2"/><path aria-label="properties.CONTINENT: Europe" role="graphics-symbol" aria-roledescription="geoshape" transform="translate(0,0)" d="M166.052,6.321L169.552,11.403L167.967,12.77L163.639,12.607L163.434,10.808L165.514,9.48L162.106,6.939L164.557,7.214Z" fill="#72b7b2"/><path aria-label="properties.CONTINENT: Europe" role="graphics-symbol" aria-roledescription="geoshape" transform="translate(0,0)" d="M166.016,22.264L162.828,23.471L162.065,22.821L163.147,21.895Z" fill="#72b7b2"/><path aria-label="properties.CONTINENT: Europe" role="graphics-symbol" aria-roledescription="geoshape" transform="translate(0,0)" d="M160.518,20.463L162.356,21.121L163.356,21.894L158.896,21.848Z" fill="#72b7b2"/><path aria-label="properties.CONTINENT: Africa" role="graphics-symbol" aria-roledescription="geoshape" transform="translate(0,0)" d="M180.576,58.231L181.96,54.224L186.266,60.174L183.579,58.121Z" fill="#4c78a8"/><path aria-label="properties.CONTINENT: Asia" role="graphics-symbol" aria-roledescription="geoshape" transform="translate(0,0)" d="M257.486,31.689L258.751,35.78L256.225,37.507L255.046,36.337L252.246,37.071L253.426,37.835L252.892,39.646L251.322,37.683L256.241,32.654L254.954,29.7ZM253.065,25.519L257.38,27.694L254.437,29.333ZM254.454,38.299L254.261,36.576L255.238,37.153Z" fill="#e45756"/><path aria-label="properties.CONTINENT: South America" role="graphics-symbol" aria-roledescription="geoshape" transform="translate(0,0)" d="M102.118,97.496L102.593,99.607L105.875,101.722L105.317,105.368L102.917,105.084L103.234,102.964L98.728,99.781L99.051,96.894Z" fill="#ff9da6"/><path aria-label="properties.CONTINENT: Asia" role="graphics-symbol" aria-roledescription="geoshape" transform="translate(0,0)" d="M193.119,53.109L193.635,56.91L186.608,60.245L186.124,54.69L189.194,55.394Z" fill="#e45756"/><path aria-label="properties.CONTINENT: Asia" role="graphics-symbol" aria-roledescription="geoshape" transform="translate(0,0)" d="M177.952,41.826L180.924,38.867L187.978,42.203L192.586,48.692L195.253,49.013L195.47,51.999L189.194,55.394L186.124,54.69L185.734,56.068Z" fill="#e45756"/><path aria-label="properties.CONTINENT: Antarctica" role="graphics-symbol" aria-roledescription="geoshape" transform="translate(0,0)" d="M124.165,146.761L126.775,146.922L127.37,147.454L121.819,147.644ZM115.394,147.527L118.215,147.324L118.86,147.459L118.772,147.753ZM107.796,144.032L109.092,142.223L111.263,143.674ZM92.242,143.937L95.409,143.968L96.058,144.268L93.473,144.258ZM83.625,145.054L81.902,144.678L84.058,144.756ZM80.239,144.882L79.533,144.639L81.377,144.949ZM63.276,146.965L64.43,146.886L66.279,147.28L65.359,147.326ZM59.47,149.093L59.47,149.093L58.614,148.519L77.278,148.681L71.448,148.428L71.069,148.041L68.505,147.783L73.505,147.553L68.037,147.131L64.854,146.305L69.01,146.51L71.156,146.134L70.283,145.656L75.501,145.157L95.169,145.424L91.915,144.318L108.6,144.949L112.235,144.247L109.9,141.267L111.354,139.674L114.292,138.548L111.391,141.659L114.717,143.292L116.331,144.862L112.001,146.2L108.449,146.232L110.802,146.708L108.912,147.172L120.201,148.326L135.155,147.553L131.321,147.266L131.076,146.871L140.499,145.541L141.468,144.588L146.166,143.412L165.635,143.148L169.932,141.996L172.427,142.754L182.964,140.291L186.288,141.659L190.694,141.647L190.594,142.432L188.515,143.915L189.433,144.134L192.738,142.811L202.911,140.549L206.876,141.304L212.248,140.122L213.345,141.017L218.532,140.33L221.225,141.229L231.956,139.952L231.962,141.03L236.781,141.005L247.068,143.831L238.647,146.034L238.527,147.02L235.471,147.165L233.297,147.737L236.766,148.456L241.797,148.625L241.797,148.625L240.706,149.093L240.706,149.093L240.706,149.093L150.088,149.093L59.47,149.093Z" fill="#f58518"/><path aria-label="properties.CONTINENT: Asia" role="graphics-symbol" aria-roledescription="geoshape" transform="translate(0,0)" d="M176.421,35.861L175.58,35.525L176.799,35.233Z" fill="#e45756"/><path aria-label="properties.CONTINENT: Asia" role="graphics-symbol" aria-roledescription="geoshape" transform="translate(0,0)" d="M175.717,36.362L175.949,35.754L176.456,35.944Z" fill="#e45756"/><path aria-label="properties.CONTINENT: Africa" role="graphics-symbol" aria-roledescription="geoshape" transform="translate(0,0)" d="M148.407,35.749L149.059,38.76L143.158,42.375L143.01,44.218L140.911,44.474L137.972,50.341L136.105,50.427L138.427,45.152L142.483,41.213L143.313,37.741L145.509,35.143Z" fill="#4c78a8"/><path aria-label="properties.CONTINENT: Africa" role="graphics-symbol" aria-roledescription="geoshape" transform="translate(0,0)" d="M180.319,49.791L170.588,49.791L169.943,39.487L177.168,39.855L177.493,43.464L175.804,41.397Z" fill="#4c78a8"/><path aria-label="properties.CONTINENT: Africa" role="graphics-symbol" aria-roledescription="geoshape" transform="translate(0,0)" d="M169.719,39.141L169.781,52.464L158.468,47.187L157.946,39.69L159.083,37.848L165.239,40.861L166.451,38.296Z" fill="#4c78a8"/><path aria-label="properties.CONTINENT: Africa" role="graphics-symbol" aria-roledescription="geoshape" transform="translate(0,0)" d="M190.507,65.503L188.225,68.928L183.674,70.733L180.769,69.56L177.966,65.752L181.775,57.626L184.971,59.324L186.975,64.16Z" fill="#4c78a8"/><path aria-label="properties.CONTINENT: Africa" role="graphics-symbol" aria-roledescription="geoshape" transform="translate(0,0)" d="M185.254,62.04L186.486,60.524L186.121,62.18Z" fill="#4c78a8"/><path aria-label="properties.CONTINENT: Africa" role="graphics-symbol" aria-roledescription="geoshape" transform="translate(0,0)" d="M191.287,61.632L190.507,65.503L185.957,62.582L186.4,61.574L187.279,62.726Z" fill="#4c78a8"/><path aria-label="properties.CONTINENT: Africa" role="graphics-symbol" aria-roledescription="geoshape" transform="translate(0,0)" d="M178.895,75.737L175.219,76.185L176.61,70.322L179.359,70.58Z" fill="#4c78a8"/><path aria-label="properties.CONTINENT: Africa" role="graphics-symbol" aria-roledescription="geoshape" transform="translate(0,0)" d="M174.973,76.504L176.214,77.268L174.737,77.899Z" fill="#4c78a8"/><path aria-label="properties.CONTINENT: Europe" role="graphics-symbol" aria-roledescription="geoshape" transform="translate(0,0)" d="M163.827,28.284L162.154,26.948L161.691,25.818L164.207,26.168Z" fill="#72b7b2"/><path aria-label="properties.CONTINENT: Europe" role="graphics-symbol" aria-roledescription="geoshape" transform="translate(0,0)" d="M165.519,28.864L167.227,29.56L165.499,29.806Z" fill="#72b7b2"/><path aria-label="properties.CONTINENT: Europe" role="graphics-symbol" aria-roledescription="geoshape" transform="translate(0,0)" d="M163.711,25.184L166.673,26.438L166.798,28.466L164.23,27.443Z" fill="#72b7b2"/><path aria-label="properties.CONTINENT: Europe" role="graphics-symbol" aria-roledescription="geoshape" transform="translate(0,0)" d="M164.23,27.443L164.502,29.033L163.761,28.448Z" fill="#72b7b2"/><path aria-label="properties.CONTINENT: Europe" role="graphics-symbol" aria-roledescription="geoshape" transform="translate(0,0)" d="M166.104,28.676L165.305,27.738L166.204,28.252Z" fill="#72b7b2"/><path aria-label="properties.CONTINENT: North America" role="graphics-symbol" aria-roledescription="geoshape" transform="translate(0,0)" d="M97.837,63.13L98.787,62.262L98.695,63.107Z" fill="#54a24b"/><path aria-label="properties.CONTINENT: Africa" role="graphics-symbol" aria-roledescription="geoshape" transform="translate(0,0)" d="M176.265,70.634L170.276,64.801L171.83,62.765L176.543,63.448L178.001,60.762L177.966,65.752L180.015,68.351Z" fill="#4c78a8"/></g><g class="mark-group role-legend" role="graphics-symbol" aria-roledescription="legend" aria-label="Symbol legend for fill color with 8 values: Africa, Antarctica, Asia, Europe, North America, ending with South America"><g transform="translate(318,0)"><path class="background" aria-hidden="true" d="M0,0h130v102h-130Z" pointer-events="none"/><g><g class="mark-group role-legend-entry"><g transform="translate(0,0)"><path class="background" aria-hidden="true" d="M0,0h0v0h0Z" pointer-events="none"/><g><g class="mark-group role-scope" role="graphics-object" aria-roledescription="group mark container"><g transform="translate(0,0)"><path class="background" aria-hidden="true" d="M0,0h129.96484375v11h-129.96484375Z" pointer-events="none" opacity="1"/><g><g class="mark-symbol role-legend-symbol" pointer-events="none"><path transform="translate(6,6)" d="M5,0A5,5,0,1,1,-5,0A5,5,0,1,1,5,0" fill="#4c78a8" stroke-width="1.5" opacity="1"/></g><g class="mark-text role-legend-label" pointer-events="none"><text text-anchor="start" transform="translate(16,9)" font-family="sans-serif" font-size="10px" fill="#000" opacity="1">Africa</text></g></g><path class="foreground" aria-hidden="true" d="" pointer-events="none" display="none"/></g><g transform="translate(0,13)"><path class="background" aria-hidden="true" d="M0,0h129.96484375v11h-129.96484375Z" pointer-events="none" opacity="1"/><g><g class="mark-symbol role-legend-symbol" pointer-events="none"><path transform="translate(6,6)" d="M5,0A5,5,0,1,1,-5,0A5,5,0,1,1,5,0" fill="#f58518" stroke-width="1.5" opacity="1"/></g><g class="mark-text role-legend-label" pointer-events="none"><text text-anchor="start" transform="translate(16,9)" font-family="sans-serif" font-size="10px" fill="#000" opacity="1">Antarctica</text></g></g><path class="foreground" aria-hidden="true" d="" pointer-events="none" display="none"/></g><g transform="translate(0,26)"><path class="background" aria-hidden="true" d="M0,0h129.96484375v11h-129.96484375Z" pointer-events="none" opacity="1"/><g><g class="mark-symbol role-legend-symbol" pointer-events="none"><path transform="translate(6,6)" d="M5,0A5,5,0,1,1,-5,0A5,5,0,1,1,5,0" fill="#e45756" stroke-width="1.5" opacity="1"/></g><g class="mark-text role-legend-label" pointer-events="none"><text text-anchor="start" transform="translate(16,9)" font-family="sans-serif" font-size="10px" fill="#000" opacity="1">Asia</text></g></g><path class="foreground" aria-hidden="true" d="" pointer-events="none" display="none"/></g><g transform="translate(0,39)"><path class="background" aria-hidden="true" d="M0,0h129.96484375v11h-129.96484375Z" pointer-events="none" opacity="1"/><g><g class="mark-symbol role-legend-symbol" pointer-events="none"><path transform="translate(6,6)" d="M5,0A5,5,0,1,1,-5,0A5,5,0,1,1,5,0" fill="#72b7b2" stroke-width="1.5" opacity="1"/></g><g class="mark-text role-legend-label" pointer-events="none"><text text-anchor="start" transform="translate(16,9)" font-family="sans-serif" font-size="10px" fill="#000" opacity="1">Europe</text></g></g><path class="foreground" aria-hidden="true" d="" pointer-events="none" display="none"/></g><g transform="translate(0,52)"><path class="background" aria-hidden="true" d="M0,0h129.96484375v11h-129.96484375Z" pointer-events="none" opacity="1"/><g><g class="mark-symbol role-legend-symbol" pointer-events="none"><path transform="translate(6,6)" d="M5,0A5,5,0,1,1,-5,0A5,5,0,1,1,5,0" fill="#54a24b" stroke-width="1.5" opacity="1"/></g><g class="mark-text role-legend-label" pointer-events="none"><text text-anchor="start" transform="translate(16,9)" font-family="sans-serif" font-size="10px" fill="#000" opacity="1">North America</text></g></g><path class="foreground" aria-hidden="true" d="" pointer-events="none" display="none"/></g><g transform="translate(0,65)"><path class="background" aria-hidden="true" d="M0,0h129.96484375v11h-129.96484375Z" pointer-events="none" opacity="1"/><g><g class="mark-symbol role-legend-symbol" pointer-events="none"><path transform="translate(6,6)" d="M5,0A5,5,0,1,1,-5,0A5,5,0,1,1,5,0" fill="#eeca3b" stroke-width="1.5" opacity="1"/></g><g class="mark-text role-legend-label" pointer-events="none"><text text-anchor="start" transform="translate(16,9)" font-family="sans-serif" font-size="10px" fill="#000" opacity="1">Oceania</text></g></g><path class="foreground" aria-hidden="true" d="" pointer-events="none" display="none"/></g><g transform="translate(0,78)"><path class="background" aria-hidden="true" d="M0,0h129.96484375v11h-129.96484375Z" pointer-events="none" opacity="1"/><g><g class="mark-symbol role-legend-symbol" pointer-events="none"><path transform="translate(6,6)" d="M5,0A5,5,0,1,1,-5,0A5,5,0,1,1,5,0" fill="#b279a2" stroke-width="1.5" opacity="1"/></g><g class="mark-text role-legend-label" pointer-events="none"><text text-anchor="start" transform="translate(16,9)" font-family="sans-serif" font-size="10px" fill="#000" opacity="1">Seven seas (open ocean)</text></g></g><path class="foreground" aria-hidden="true" d="" pointer-events="none" display="none"/></g><g transform="translate(0,91)"><path class="background" aria-hidden="true" d="M0,0h129.96484375v11h-129.96484375Z" pointer-events="none" opacity="1"/><g><g class="mark-symbol role-legend-symbol" pointer-events="none"><path transform="translate(6,6)" d="M5,0A5,5,0,1,1,-5,0A5,5,0,1,1,5,0" fill="#ff9da6" stroke-width="1.5" opacity="1"/></g><g class="mark-text role-legend-label" pointer-events="none"><text text-anchor="start" transform="translate(16,9)" font-family="sans-serif" font-size="10px" fill="#000" opacity="1">South America</text></g></g><path class="foreground" aria-hidden="true" d="" pointer-events="none" display="none"/></g></g></g><path class="foreground" aria-hidden="true" d="" pointer-events="none" display="none"/></g></g></g><path class="foreground" aria-hidden="true" d="" pointer-events="none" display="none"/></g></g></g><path class="foreground" aria-hidden="true" d="" display="none"/></g></g></g></svg>